<?xml version="1.0" encoding="utf-8"?>
<!-- Generator: Adobe Illustrator 16.0.0, SVG Export Plug-In . SVG Version: 6.00 Build 0)  -->
<!DOCTYPE svg PUBLIC "-//W3C//DTD SVG 1.1//EN" "http://www.w3.org/Graphics/SVG/1.1/DTD/svg11.dtd">
<svg version="1.1" id="commit" xmlns="http://www.w3.org/2000/svg" xmlns:xlink="http://www.w3.org/1999/xlink" x="0px" y="0px"
	 width="94.5px" height="104px" viewBox="0 0 94.5 104" enable-background="new 0 0 94.5 104" xml:space="preserve">
<path fill-rule="evenodd" clip-rule="evenodd" fill="#FFFFFF" d="M86.402,80.887c-2.981,1.725-6.728,3.892-10.711,6.195
	c-7.477,4.324-15.788,9.13-21.437,12.397c-4.068,2.353-9.435,2.357-13.494,0.01c-5.698-3.295-14.115-8.163-21.651-12.521
	c-3.866-2.235-7.5-4.337-10.416-6.023C4.66,78.611,2,73.924,2,69.165c0-10.088,0-27.407,0-37.269c0-4.5,2.69-9.003,6.761-11.357
	c8.637-4.995,23.492-13.586,32.079-18.552c4.013-2.321,9.314-2.314,13.344,0.017c8.651,5.003,23.628,13.665,32.229,18.638
	c3.972,2.297,6.583,6.835,6.583,11.439c0,9.862,0,26.954,0,36.992C92.996,73.883,90.38,78.586,86.402,80.887z"/>
</svg>
